# Blender v2.93.5 OBJ File: ''
# www.blender.org
v 0.000000 -0.000000 0.080000
v 0.042475 -0.003545 0.024000
v 0.042399 -0.004374 0.080000
v 0.039109 -0.017226 0.024000
v 0.038713 -0.018098 0.080000
v 0.032386 -0.027588 0.024000
v 0.030628 -0.029643 0.080000
v 0.023588 -0.035635 0.024000
v 0.019231 -0.038163 0.080000
v 0.010543 -0.041299 0.024000
v 0.005757 -0.042233 0.080000
v -0.001520 -0.042596 0.024000
v -0.008486 -0.041883 0.080000
v -0.015345 -0.039884 0.024000
v -0.021577 -0.036759 0.080000
v -0.029070 -0.031324 0.024000
v -0.032568 -0.027668 0.080000
v -0.038629 -0.018276 0.024000
v -0.039681 -0.015563 0.080000
v -0.042379 -0.004558 0.024000
v -0.042135 -0.005897 0.080000
v -0.042399 0.004374 0.080000
v -0.042160 0.005700 0.024000
v -0.039109 0.017226 0.024000
v -0.038713 0.018098 0.080000
v -0.032386 0.027589 0.024000
v -0.030628 0.029643 0.080000
v -0.023588 0.035635 0.024000
v -0.019231 0.038163 0.080000
v -0.010543 0.041299 0.024000
v -0.005757 0.042233 0.080000
v 0.001520 0.042596 0.024000
v 0.008486 0.041883 0.080000
v 0.011642 0.040920 0.024000
v 0.022616 0.036260 0.024000
v 0.021577 0.036759 0.080000
v 0.029490 0.030667 0.080000
v 0.031917 0.028130 0.024000
v 0.034684 0.024644 0.080000
v 0.038629 0.018276 0.024000
v 0.039681 0.015563 0.080000
v 0.042058 0.006409 0.024000
v 0.042135 0.005897 0.080000
v 0.042135 0.005897 0.080000
v 0.039681 0.015563 0.080000
v 0.034684 0.024644 0.080000
v 0.029490 0.030667 0.080000
v 0.021577 0.036759 0.080000
v 0.008486 0.041883 0.080000
v -0.005757 0.042233 0.080000
v -0.019231 0.038163 0.080000
v -0.030628 0.029643 0.080000
v -0.038713 0.018098 0.080000
v -0.042399 0.004374 0.080000
v 0.042399 -0.004374 0.080000
v -0.042135 -0.005897 0.080000
v -0.039681 -0.015563 0.080000
v -0.032568 -0.027668 0.080000
v -0.021577 -0.036759 0.080000
v -0.008486 -0.041883 0.080000
v 0.005757 -0.042233 0.080000
v 0.019231 -0.038163 0.080000
v 0.030628 -0.029643 0.080000
v 0.038713 -0.018098 0.080000
v -0.018812 -0.041137 0.024000
v -0.004684 -0.044879 0.024000
v -0.001520 -0.042596 0.024000
v 0.005858 -0.044661 0.024000
v 0.017727 -0.041616 0.024000
v 0.014663 0.042590 0.024000
v 0.004684 0.044879 0.024000
v 0.001520 0.042596 0.024000
v -0.017727 0.041616 0.024000
v -0.005858 0.044661 0.024000
v -0.010543 0.041299 0.024000
v -0.023588 0.035635 0.024000
v -0.031563 0.032402 0.024000
v -0.032386 0.027589 0.024000
v -0.039109 0.017226 0.024000
v -0.041137 0.018812 0.024000
v -0.042160 0.005700 0.024000
v -0.044879 0.004684 0.024000
v -0.042379 -0.004558 0.024000
v -0.044661 -0.005858 0.024000
v -0.038629 -0.018276 0.024000
v -0.041616 -0.017727 0.024000
v -0.029070 -0.031324 0.024000
v -0.032402 -0.031563 0.024000
v -0.015345 -0.039884 0.024000
v 0.022239 0.039171 0.024000
v 0.011642 0.040920 0.024000
v 0.022616 0.036260 0.024000
v 0.032402 0.031563 0.024000
v 0.031917 0.028130 0.024000
v 0.041616 0.017727 0.024000
v 0.038629 0.018276 0.024000
v 0.044661 0.005858 0.024000
v 0.042058 0.006409 0.024000
v 0.044879 -0.004684 0.024000
v 0.042475 -0.003545 0.024000
v 0.041137 -0.018812 0.024000
v 0.039109 -0.017226 0.024000
v 0.031563 -0.032402 0.024000
v 0.032386 -0.027588 0.024000
v 0.023588 -0.035635 0.024000
v 0.010543 -0.041299 0.024000
v -0.009487 -0.033409 0.018000
v -0.031563 -0.032402 0.018000
v -0.022256 -0.026662 0.018000
v 0.003166 -0.034476 0.018000
v 0.032402 -0.031563 0.018000
v 0.018812 -0.041137 0.018000
v 0.006588 -0.044559 0.018000
v -0.003643 -0.044975 0.018000
v -0.017727 -0.041616 0.018000
v 0.003643 0.044975 0.018000
v 0.017727 0.041616 0.018000
v 0.031563 0.032402 0.018000
v 0.009487 0.033409 0.018000
v -0.003166 0.034476 0.018000
v -0.032402 0.031563 0.018000
v -0.018812 0.041137 0.018000
v -0.006588 0.044559 0.018000
v -0.041137 -0.018812 0.018000
v -0.031176 -0.015305 0.018000
v -0.034476 -0.003166 0.018000
v -0.044559 -0.006588 0.018000
v -0.044975 0.003643 0.018000
v -0.033409 0.009487 0.018000
v -0.041616 0.017727 0.018000
v -0.026662 0.022256 0.018000
v -0.015305 0.031176 0.018000
v 0.015305 -0.031176 0.018000
v 0.041616 -0.017727 0.018000
v 0.026662 -0.022256 0.018000
v 0.033409 -0.009487 0.018000
v 0.044975 -0.003643 0.018000
v 0.034476 0.003166 0.018000
v 0.044559 0.006588 0.018000
v 0.041137 0.018812 0.018000
v 0.031176 0.015305 0.018000
v 0.022256 0.026662 0.018000
v 0.034476 0.003166 0.018000
v 0.034706 -0.001301 0.000000
v 0.032783 0.011130 0.000000
v 0.031176 0.015305 0.018000
v 0.026662 0.022256 0.000000
v 0.022256 0.026662 0.018000
v 0.015305 0.031176 0.000000
v 0.009487 0.033409 0.018000
v 0.001301 0.034706 0.000000
v -0.003166 0.034476 0.018000
v -0.011130 0.032783 0.000000
v -0.015305 0.031176 0.018000
v -0.022256 0.026662 0.000000
v -0.026662 0.022256 0.018000
v -0.029143 0.018544 0.000000
v -0.033409 0.009487 0.018000
v -0.033064 0.010265 0.000000
v -0.034652 -0.002333 0.000000
v -0.034476 -0.003166 0.018000
v -0.031176 -0.015305 0.018000
v -0.030707 -0.016226 0.000000
v -0.022256 -0.026662 0.018000
v -0.024198 -0.024651 0.000000
v -0.015305 -0.031176 0.000000
v -0.009487 -0.033409 0.018000
v -0.001301 -0.034706 0.000000
v 0.003166 -0.034476 0.018000
v 0.011130 -0.032783 0.000000
v 0.015305 -0.031176 0.018000
v 0.022256 -0.026662 0.000000
v 0.026662 -0.022256 0.018000
v 0.031176 -0.015305 0.000000
v 0.033409 -0.009487 0.018000
v 0.044975 -0.003643 0.018000
v 0.044879 -0.004684 0.024000
v 0.041616 -0.017727 0.018000
v 0.041137 -0.018812 0.024000
v 0.032402 -0.031563 0.018000
v 0.031563 -0.032402 0.024000
v 0.018812 -0.041137 0.018000
v 0.017727 -0.041616 0.024000
v 0.006588 -0.044559 0.018000
v 0.005858 -0.044661 0.024000
v -0.003643 -0.044975 0.018000
v -0.004684 -0.044879 0.024000
v -0.017727 -0.041616 0.018000
v -0.018812 -0.041137 0.024000
v -0.031563 -0.032402 0.018000
v -0.032402 -0.031563 0.024000
v -0.041137 -0.018812 0.018000
v -0.041616 -0.017727 0.024000
v -0.044559 -0.006588 0.018000
v -0.044661 -0.005858 0.024000
v -0.044975 0.003643 0.018000
v -0.044879 0.004684 0.024000
v -0.041616 0.017727 0.018000
v -0.041137 0.018812 0.024000
v -0.032402 0.031563 0.018000
v -0.031563 0.032402 0.024000
v -0.018812 0.041137 0.018000
v -0.017727 0.041616 0.024000
v -0.006588 0.044559 0.018000
v -0.005858 0.044661 0.024000
v 0.003643 0.044975 0.018000
v 0.004684 0.044879 0.024000
v 0.017727 0.041616 0.018000
v 0.014663 0.042590 0.024000
v 0.022239 0.039171 0.024000
v 0.031563 0.032402 0.018000
v 0.032402 0.031563 0.024000
v 0.041137 0.018812 0.018000
v 0.041616 0.017727 0.024000
v 0.044559 0.006588 0.018000
v 0.044661 0.005858 0.024000
v 0.011130 -0.032783 0.000000
v -0.001301 -0.034706 0.000000
v -0.015305 -0.031176 0.000000
v 0.022256 -0.026662 0.000000
v -0.024198 -0.024651 0.000000
v 0.031176 -0.015305 0.000000
v -0.030707 -0.016226 0.000000
v 0.034706 -0.001301 0.000000
v -0.034652 -0.002333 0.000000
v 0.032783 0.011130 0.000000
v -0.033064 0.010265 0.000000
v 0.026662 0.022256 0.000000
v -0.029143 0.018544 0.000000
v -0.022256 0.026662 0.000000
v 0.015305 0.031176 0.000000
v -0.011130 0.032783 0.000000
v 0.001301 0.034706 0.000000
vn 0.9951 -0.0991 -0.0015
vn 0.9930 -0.1178 0.0019
vn 0.9178 -0.3970 -0.0020
vn 0.9064 -0.4224 0.0033
vn 0.7638 -0.6455 -0.0036
vn 0.7192 -0.6948 0.0066
vn 0.5453 -0.8382 -0.0068
vn 0.4503 -0.8929 0.0081
vn 0.2546 -0.9670 -0.0076
vn 0.1343 -0.9909 0.0082
vn -0.0420 -0.9991 -0.0080
vn -0.1970 -0.9804 0.0089
vn -0.3669 -0.9302 -0.0098
vn -0.5076 -0.8616 0.0090
vn -0.6801 -0.7330 -0.0101
vn -0.7618 -0.6478 0.0076
vn -0.9015 -0.4328 -0.0072
vn -0.9261 -0.3772 0.0029
vn -0.9925 -0.1219 -0.0039
vn -0.9904 -0.1384 0.0010
vn -0.9930 0.1184 0.0028
vn -0.9900 0.1414 -0.0009
vn -0.9148 0.4038 -0.0002
vn -0.9064 0.4224 0.0033
vn -0.7638 0.6455 -0.0036
vn -0.7192 0.6948 0.0066
vn -0.5452 0.8383 -0.0068
vn -0.4503 0.8929 0.0081
vn -0.2546 0.9670 -0.0076
vn -0.1343 0.9909 0.0082
vn 0.0284 0.9996 -0.0063
vn 0.2009 0.9796 0.0038
vn 0.2833 0.9590 -0.0005
vn 0.5280 0.8492 0.0002
vn 0.4906 0.8714 0.0013
vn 0.6874 0.7263 0.0031
vn 0.7483 0.6633 -0.0053
vn 0.8205 0.5716 0.0043
vn 0.9051 0.4253 -0.0045
vn 0.9309 0.3653 0.0035
vn 0.9872 0.1598 -0.0025
vn 0.9906 0.1370 0.0012
vn -0.0000 -0.0000 1.0000
vn -0.0009 -0.0055 1.0000
vn -0.0000 0.0000 -1.0000
vn 0.9954 0.0938 0.0183
vn 0.9989 -0.0427 -0.0188
vn 0.9475 0.3192 -0.0183
vn 0.8952 0.4453 0.0188
vn 0.7641 0.6449 -0.0188
vn 0.6401 0.7679 0.0217
vn 0.4412 0.8972 -0.0217
vn 0.2783 0.9603 0.0188
vn 0.0427 0.9989 -0.0188
vn -0.0938 0.9954 0.0183
vn -0.3192 0.9475 -0.0183
vn -0.4453 0.8952 0.0188
vn -0.6335 0.7736 -0.0135
vn -0.7704 0.6372 0.0223
vn -0.8455 0.5339 -0.0055
vn -0.9607 0.2773 0.0106
vn -0.9586 0.2846 -0.0061
vn -0.9971 -0.0757 -0.0054
vn -0.9954 -0.0957 0.0053
vn -0.8957 -0.4447 0.0021
vn -0.8889 -0.4582 0.0022
vn -0.6469 -0.7624 0.0164
vn -0.7080 -0.7062 -0.0025
vn -0.4305 -0.9024 -0.0161
vn -0.2783 -0.9603 0.0188
vn -0.0427 -0.9989 -0.0188
vn 0.0938 -0.9954 0.0183
vn 0.3192 -0.9475 -0.0183
vn 0.4453 -0.8952 0.0188
vn 0.6449 -0.7641 -0.0188
vn 0.7679 -0.6401 0.0217
vn 0.8972 -0.4412 -0.0217
vn 0.9603 -0.2783 0.0188
vn 0.9960 -0.0891 -0.0059
vn 0.9923 -0.1237 0.0025
vn 0.9212 -0.3890 -0.0050
vn 0.9019 -0.4319 0.0026
vn 0.7241 -0.6897 -0.0039
vn 0.6897 -0.7241 0.0039
vn 0.4375 -0.8992 -0.0014
vn 0.3962 -0.9181 0.0055
vn 0.1567 -0.9876 -0.0046
vn 0.1337 -0.9910 0.0056
vn -0.0891 -0.9960 -0.0059
vn -0.1237 -0.9923 0.0025
vn -0.3890 -0.9212 -0.0050
vn -0.4319 -0.9019 0.0026
vn -0.6897 -0.7241 -0.0039
vn -0.7241 -0.6897 0.0039
vn -0.8992 -0.4375 -0.0014
vn -0.9181 -0.3962 0.0055
vn -0.9876 -0.1567 -0.0046
vn -0.9910 -0.1337 0.0056
vn -0.9960 0.0891 -0.0059
vn -0.9923 0.1237 0.0025
vn -0.9212 0.3890 -0.0050
vn -0.9019 0.4319 0.0026
vn -0.7241 0.6897 -0.0039
vn -0.6897 0.7241 0.0039
vn -0.4375 0.8992 -0.0014
vn -0.3962 0.9181 0.0055
vn -0.1567 0.9876 -0.0046
vn -0.1337 0.9910 0.0056
vn 0.0891 0.9960 -0.0059
vn 0.1192 0.9928 -0.0076
vn 0.3911 0.9203 -0.0105
vn 0.2895 0.9572 -0.0076
vn 0.5233 0.8518 -0.0230
vn 0.6974 0.7165 -0.0154
vn 0.7328 0.6805 0.0014
vn 0.8992 0.4375 -0.0014
vn 0.9181 0.3962 0.0055
vn 0.9876 0.1567 -0.0046
vn 0.9910 0.1337 0.0056
s 1
f 2//1 3//2 4//3
f 4//3 3//2 5//4
f 4//3 5//4 6//5
f 6//5 5//4 7//6
f 6//5 7//6 8//7
f 8//7 7//6 9//8
f 8//7 9//8 10//9
f 10//9 9//8 11//10
f 10//9 11//10 12//11
f 12//11 11//10 13//12
f 12//11 13//12 14//13
f 14//13 13//12 15//14
f 14//13 15//14 16//15
f 16//15 15//14 17//16
f 16//15 17//16 18//17
f 18//17 17//16 19//18
f 18//17 19//18 20//19
f 20//19 19//18 21//20
f 20//19 21//20 22//21
f 20//19 22//21 23//22
f 23//22 22//21 24//23
f 24//23 22//21 25//24
f 24//23 25//24 26//25
f 26//25 25//24 27//26
f 26//25 27//26 28//27
f 28//27 27//26 29//28
f 28//27 29//28 30//29
f 30//29 29//28 31//30
f 30//29 31//30 32//31
f 32//31 31//30 33//32
f 32//31 33//32 34//33
f 34//33 33//32 35//34
f 35//34 33//32 36//35
f 35//34 36//35 37//36
f 35//34 37//36 38//37
f 38//37 37//36 39//38
f 38//37 39//38 40//39
f 40//39 39//38 41//40
f 40//39 41//40 42//41
f 42//41 41//40 43//42
f 42//41 43//42 2//1
f 2//1 43//42 3//2
f 44//43 45//43 1//43
f 46//43 47//43 1//43
f 45//43 46//43 1//43
f 47//43 48//43 1//43
f 48//43 49//43 1//43
f 49//43 50//43 1//43
f 50//43 51//43 1//43
f 51//43 52//43 1//43
f 52//43 53//43 1//43
f 53//43 54//43 1//43
f 1//43 55//43 44//43
f 56//43 57//43 1//43
f 57//43 58//43 1//43
f 58//43 59//43 1//43
f 59//43 60//43 1//43
f 60//43 61//43 1//43
f 61//43 62//43 1//43
f 62//43 63//43 1//43
f 63//43 64//43 1//43
f 64//43 55//43 1//43
f 1//43 54//43 56//43
f 65//43 66//43 67//43
f 68//43 69//43 66//43
f 66//43 69//43 67//43
f 70//43 71//43 72//43
f 72//43 71//43 73//43
f 73//43 71//43 74//43
f 72//43 73//43 75//43
f 75//43 73//43 76//43
f 76//43 73//43 77//43
f 76//43 77//43 78//43
f 78//43 77//43 79//43
f 79//43 77//43 80//43
f 79//43 80//43 81//43
f 81//43 80//43 82//43
f 81//43 82//43 83//43
f 83//43 82//43 84//43
f 83//43 84//43 85//43
f 85//43 84//43 86//43
f 85//43 86//43 87//43
f 87//43 86//43 88//43
f 87//43 88//43 89//43
f 89//43 88//43 65//43
f 89//43 65//43 67//43
f 70//43 72//43 90//43
f 90//43 72//43 91//44
f 90//43 91//44 92//43
f 90//43 92//43 93//43
f 93//43 92//43 94//43
f 93//43 94//43 95//43
f 95//43 94//43 96//43
f 95//43 96//43 97//43
f 97//43 96//43 98//43
f 97//43 98//43 99//43
f 99//43 98//43 100//43
f 99//43 100//43 101//43
f 101//43 100//43 102//43
f 101//43 102//43 103//43
f 103//43 102//43 104//43
f 103//43 104//43 105//43
f 103//43 105//43 69//43
f 69//43 105//43 106//43
f 106//43 67//43 69//43
f 107//45 108//45 109//45
f 110//45 111//45 112//45
f 110//45 112//45 113//45
f 110//45 113//45 114//45
f 110//45 114//45 115//45
f 110//45 115//45 108//45
f 108//45 107//45 110//45
f 116//45 117//45 118//45
f 116//45 118//45 119//45
f 116//45 119//45 120//45
f 116//45 120//45 121//45
f 116//45 121//45 122//45
f 116//45 122//45 123//45
f 109//45 108//45 124//45
f 109//45 124//45 125//45
f 125//45 124//45 126//45
f 126//45 124//45 127//45
f 126//45 127//45 128//45
f 126//45 128//45 129//45
f 129//45 128//45 130//45
f 129//45 130//45 131//45
f 131//45 130//45 121//45
f 131//45 121//45 132//45
f 132//45 121//45 120//45
f 133//45 111//45 110//45
f 111//45 133//45 134//45
f 134//45 133//45 135//45
f 134//45 135//45 136//45
f 134//45 136//45 137//45
f 137//45 136//45 138//45
f 137//45 138//45 139//45
f 139//45 138//45 140//45
f 140//45 138//45 141//45
f 140//45 141//45 142//45
f 140//45 142//45 118//45
f 118//45 142//45 119//45
f 143//46 144//47 145//48
f 143//46 145//48 146//49
f 146//49 145//48 147//50
f 146//49 147//50 148//51
f 148//51 147//50 149//52
f 148//51 149//52 150//53
f 150//53 149//52 151//54
f 150//53 151//54 152//55
f 152//55 151//54 153//56
f 152//55 153//56 154//57
f 154//57 153//56 155//58
f 154//57 155//58 156//59
f 156//59 155//58 157//60
f 156//59 157//60 158//61
f 158//61 157//60 159//62
f 158//61 159//62 160//63
f 158//61 160//63 161//64
f 161//64 160//63 162//65
f 162//65 160//63 163//66
f 162//65 163//66 164//67
f 164//67 163//66 165//68
f 164//67 165//68 166//69
f 164//67 166//69 167//70
f 167//70 166//69 168//71
f 167//70 168//71 169//72
f 169//72 168//71 170//73
f 169//72 170//73 171//74
f 171//74 170//73 172//75
f 171//74 172//75 173//76
f 173//76 172//75 174//77
f 173//76 174//77 175//78
f 175//78 174//77 144//47
f 175//78 144//47 143//46
f 176//79 177//80 178//81
f 178//81 177//80 179//82
f 178//81 179//82 180//83
f 180//83 179//82 181//84
f 180//83 181//84 182//85
f 182//85 181//84 183//86
f 182//85 183//86 184//87
f 184//87 183//86 185//88
f 184//87 185//88 186//89
f 186//89 185//88 187//90
f 186//89 187//90 188//91
f 188//91 187//90 189//92
f 188//91 189//92 190//93
f 190//93 189//92 191//94
f 190//93 191//94 192//95
f 192//95 191//94 193//96
f 192//95 193//96 194//97
f 194//97 193//96 195//98
f 194//97 195//98 196//99
f 196//99 195//98 197//100
f 196//99 197//100 198//101
f 198//101 197//100 199//102
f 198//101 199//102 200//103
f 200//103 199//102 201//104
f 200//103 201//104 202//105
f 202//105 201//104 203//106
f 202//105 203//106 204//107
f 204//107 203//106 205//108
f 204//107 205//108 206//109
f 206//109 205//108 207//110
f 206//109 207//110 208//111
f 208//111 207//110 209//112
f 208//111 209//112 210//113
f 208//111 210//113 211//114
f 211//114 210//113 212//115
f 211//114 212//115 213//116
f 213//116 212//115 214//117
f 213//116 214//117 215//118
f 215//118 214//117 216//119
f 215//118 216//119 176//79
f 176//79 216//119 177//80
f 217//45 218//45 219//45
f 217//45 219//45 220//45
f 220//45 219//45 221//45
f 220//45 221//45 222//45
f 222//45 221//45 223//45
f 222//45 223//45 224//45
f 224//45 223//45 225//45
f 224//45 225//45 226//45
f 226//45 225//45 227//45
f 226//45 227//45 228//45
f 228//45 227//45 229//45
f 228//45 229//45 230//45
f 228//45 230//45 231//45
f 231//45 230//45 232//45
f 231//45 232//45 233//45
