# Blender 4.2.3 LTS
# www.blender.org
o Cube
v -5.000008 4.999992 -0.135369
v -5.000008 4.999996 7.064631
v -4.999992 -45.000008 -0.135341
v -4.999992 -45.000004 7.064659
v 44.999992 5.000008 -0.135369
v 44.999992 5.000011 7.064631
v 45.000008 -44.999992 -0.135341
v 45.000008 -44.999989 7.064659
v -10.022869 10.022850 -0.135372
v -10.022850 -50.022869 -0.135338
v 50.022850 10.022869 -0.135372
v 50.022869 -50.022850 -0.135338
v -10.022869 10.022856 9.864628
v -10.022850 -50.022865 9.864662
v 50.022850 10.022875 9.864628
v 50.022869 -50.022842 9.864662
v 50.022865 -30.007605 9.864651
v 50.022858 -9.992365 9.864639
vn -0.0000 1.0000 -0.0000
vn -0.0000 -0.0000 -1.0000
vn 1.0000 -0.0000 -0.0000
vn -0.0000 -1.0000 -0.0000
vn -1.0000 -0.0000 -0.0000
vn -0.0000 -0.0000 1.0000
vn 0.4869 -0.0000 -0.8735
vn 0.7071 -0.7071 -0.0000
vn 0.7071 0.7071 -0.0000
s 0
f 8//1 3//1 4//1
f 8//2 2//2 6//2
f 4//3 1//3 2//3
f 2//4 5//4 6//4
f 10//2 1//2 3//2
f 9//2 5//2 1//2
f 12//2 3//2 7//2
f 16//4 10//4 12//4
f 13//1 11//1 9//1
f 14//5 9//5 10//5
f 17//6 18//6 13//6
f 18//7 8//7 6//7
f 18//7 6//7 15//7
f 11//8 6//8 5//8
f 17//7 16//7 8//7
f 8//9 12//9 7//9
f 8//1 7//1 3//1
f 8//2 4//2 2//2
f 4//3 3//3 1//3
f 2//4 1//4 5//4
f 10//2 9//2 1//2
f 9//2 11//2 5//2
f 12//2 10//2 3//2
f 16//4 14//4 10//4
f 13//1 15//1 11//1
f 14//5 13//5 9//5
f 13//6 14//6 16//6
f 13//6 16//6 17//6
f 18//6 15//6 13//6
f 18//7 17//7 8//7
f 11//8 15//8 6//8
f 8//9 16//9 12//9
