# Blender v3.2.0 OBJ File: 'ECA5EMicro.blend'
# www.blender.org
v 0.000000 -0.051500 -0.000000
v 0.000000 -0.051500 -0.035000
v -0.010047 -0.050510 -0.000000
v -0.010047 -0.050510 -0.035000
v -0.019708 -0.047580 -0.000000
v -0.019708 -0.047580 -0.035000
v -0.028612 -0.042821 -0.000000
v -0.028612 -0.042821 -0.035000
v -0.036416 -0.036416 -0.000000
v -0.036416 -0.036416 -0.035000
v -0.042821 -0.028612 -0.000000
v -0.042821 -0.028612 -0.035000
v -0.047580 -0.019708 -0.000000
v -0.047580 -0.019708 -0.035000
v -0.050510 -0.010047 -0.000000
v -0.050510 -0.010047 -0.035000
v -0.051500 0.000000 -0.000000
v -0.051500 0.000000 -0.035000
v -0.050510 0.010047 -0.000000
v -0.050510 0.010047 -0.035000
v -0.047580 0.019708 -0.000000
v -0.047580 0.019708 -0.035000
v -0.042821 0.028612 -0.000000
v -0.042821 0.028612 -0.035000
v -0.036416 0.036416 -0.000000
v -0.036416 0.036416 -0.035000
v -0.028612 0.042821 -0.000000
v -0.028612 0.042821 -0.035000
v -0.019708 0.047580 -0.000000
v -0.019708 0.047580 -0.035000
v -0.010047 0.050510 -0.000000
v -0.010047 0.050510 -0.035000
v 0.000000 0.051500 -0.000000
v 0.000000 0.051500 -0.035000
v 0.010047 0.050510 -0.000000
v 0.010047 0.050510 -0.035000
v 0.019708 0.047580 -0.000000
v 0.019708 0.047580 -0.035000
v 0.028612 0.042821 -0.000000
v 0.028612 0.042821 -0.035000
v 0.036416 0.036416 -0.000000
v 0.036416 0.036416 -0.035000
v 0.042821 0.028612 -0.000000
v 0.042821 0.028612 -0.035000
v 0.047580 0.019708 -0.000000
v 0.047580 0.019708 -0.035000
v 0.050510 0.010047 -0.000000
v 0.050510 0.010047 -0.035000
v 0.051500 -0.000000 -0.000000
v 0.051500 -0.000000 -0.035000
v 0.050510 -0.010047 -0.000000
v 0.050510 -0.010047 -0.035000
v 0.047580 -0.019708 -0.000000
v 0.047580 -0.019708 -0.035000
v 0.042821 -0.028612 -0.000000
v 0.042821 -0.028612 -0.035000
v 0.036416 -0.036416 -0.000000
v 0.036416 -0.036416 -0.035000
v 0.028612 -0.042821 -0.000000
v 0.028612 -0.042821 -0.035000
v 0.019708 -0.047580 -0.000000
v 0.019708 -0.047580 -0.035000
v 0.010047 -0.050510 -0.000000
v 0.010047 -0.050510 -0.035000
v 0.000000 0.000000 -0.035000
v 0.000000 0.000000 0.000000
v 0.000000 -0.051500 -0.000000
v -0.010047 -0.050510 -0.000000
v -0.010047 -0.050510 -0.035000
v 0.000000 -0.051500 -0.035000
v -0.019708 -0.047580 -0.000000
v -0.019708 -0.047580 -0.035000
v -0.028612 -0.042821 -0.000000
v -0.028612 -0.042821 -0.035000
v -0.036416 -0.036416 -0.000000
v -0.036416 -0.036416 -0.035000
v -0.042821 -0.028612 -0.000000
v -0.042821 -0.028612 -0.035000
v -0.047580 -0.019708 -0.000000
v -0.047580 -0.019708 -0.035000
v -0.050510 -0.010047 -0.000000
v -0.050510 -0.010047 -0.035000
v -0.051500 0.000000 -0.000000
v -0.051500 0.000000 -0.035000
v -0.050510 0.010047 -0.000000
v -0.050510 0.010047 -0.035000
v -0.047580 0.019708 -0.000000
v -0.047580 0.019708 -0.035000
v -0.042821 0.028612 -0.000000
v -0.042821 0.028612 -0.035000
v -0.036416 0.036416 -0.000000
v -0.036416 0.036416 -0.035000
v -0.028612 0.042821 -0.000000
v -0.028612 0.042821 -0.035000
v -0.019708 0.047580 -0.000000
v -0.019708 0.047580 -0.035000
v -0.010047 0.050510 -0.000000
v -0.010047 0.050510 -0.035000
v 0.000000 0.051500 -0.000000
v 0.000000 0.051500 -0.035000
v 0.010047 0.050510 -0.000000
v 0.010047 0.050510 -0.035000
v 0.019708 0.047580 -0.000000
v 0.019708 0.047580 -0.035000
v 0.028612 0.042821 -0.000000
v 0.028612 0.042821 -0.035000
v 0.036416 0.036416 -0.000000
v 0.036416 0.036416 -0.035000
v 0.042821 0.028612 -0.000000
v 0.042821 0.028612 -0.035000
v 0.047580 0.019708 -0.000000
v 0.047580 0.019708 -0.035000
v 0.050510 0.010047 -0.000000
v 0.050510 0.010047 -0.035000
v 0.051500 -0.000000 -0.000000
v 0.051500 -0.000000 -0.035000
v 0.050510 -0.010047 -0.000000
v 0.050510 -0.010047 -0.035000
v 0.047580 -0.019708 -0.000000
v 0.047580 -0.019708 -0.035000
v 0.042821 -0.028612 -0.000000
v 0.042821 -0.028612 -0.035000
v 0.036416 -0.036416 -0.000000
v 0.036416 -0.036416 -0.035000
v 0.028612 -0.042821 -0.000000
v 0.028612 -0.042821 -0.035000
v 0.019708 -0.047580 -0.000000
v 0.019708 -0.047580 -0.035000
v 0.010047 -0.050510 -0.000000
v 0.010047 -0.050510 -0.035000
vt 0.968750 0.500000
vt 1.000000 1.000000
vt 1.000000 0.500000
vt 0.937500 0.500000
vt 0.968750 1.000000
vt 0.906250 0.500000
vt 0.937500 1.000000
vt 0.875000 0.500000
vt 0.906250 1.000000
vt 0.843750 0.500000
vt 0.875000 1.000000
vt 0.812500 0.500000
vt 0.843750 1.000000
vt 0.781250 0.500000
vt 0.812500 1.000000
vt 0.750000 0.500000
vt 0.781250 1.000000
vt 0.718750 0.500000
vt 0.750000 1.000000
vt 0.687500 0.500000
vt 0.718750 1.000000
vt 0.656250 0.500000
vt 0.687500 1.000000
vt 0.625000 0.500000
vt 0.656250 1.000000
vt 0.593750 0.500000
vt 0.625000 1.000000
vt 0.562500 0.500000
vt 0.593750 1.000000
vt 0.531250 0.500000
vt 0.562500 1.000000
vt 0.500000 0.500000
vt 0.531250 1.000000
vt 0.468750 0.500000
vt 0.500000 1.000000
vt 0.437500 0.500000
vt 0.468750 1.000000
vt 0.406250 0.500000
vt 0.437500 1.000000
vt 0.375000 0.500000
vt 0.406250 1.000000
vt 0.343750 0.500000
vt 0.375000 1.000000
vt 0.312500 0.500000
vt 0.343750 1.000000
vt 0.281250 0.500000
vt 0.312500 1.000000
vt 0.250000 0.500000
vt 0.281250 1.000000
vt 0.218750 0.500000
vt 0.250000 1.000000
vt 0.187500 0.500000
vt 0.218750 1.000000
vt 0.156250 0.500000
vt 0.187500 1.000000
vt 0.125000 0.500000
vt 0.156250 1.000000
vt 0.093750 0.500000
vt 0.125000 1.000000
vt 0.062500 0.500000
vt 0.093750 1.000000
vt 0.500000 1.000000
vt 0.500000 1.000000
vt 0.531250 1.000000
vt 0.031250 0.500000
vt 0.062500 1.000000
vt 0.000000 0.500000
vt 0.031250 1.000000
vt 0.781250 1.000000
vt 0.781250 1.000000
vt 0.812500 1.000000
vt 0.218750 1.000000
vt 0.218750 1.000000
vt 0.250000 1.000000
vt 0.906250 1.000000
vt 0.906250 1.000000
vt 0.937500 1.000000
vt 0.625000 1.000000
vt 0.625000 1.000000
vt 0.656250 1.000000
vt 0.343750 1.000000
vt 0.343750 1.000000
vt 0.375000 1.000000
vt 0.062500 1.000000
vt 0.062500 1.000000
vt 0.093750 1.000000
vt 0.750000 1.000000
vt 0.750000 1.000000
vt 0.468750 1.000000
vt 0.468750 1.000000
vt 0.187500 1.000000
vt 0.187500 1.000000
vt 0.875000 1.000000
vt 0.875000 1.000000
vt 0.593750 1.000000
vt 0.593750 1.000000
vt 0.312500 1.000000
vt 0.312500 1.000000
vt 0.031250 1.000000
vt 0.031250 1.000000
vt 0.718750 1.000000
vt 0.718750 1.000000
vt 0.437500 1.000000
vt 0.437500 1.000000
vt 0.156250 1.000000
vt 0.156250 1.000000
vt 0.843750 1.000000
vt 0.843750 1.000000
vt 0.562500 1.000000
vt 0.562500 1.000000
vt 0.281250 1.000000
vt 0.281250 1.000000
vt 0.968750 1.000000
vt 0.968750 1.000000
vt 1.000000 1.000000
vt 0.000000 1.000000
vt 0.000000 1.000000
vt 0.687500 1.000000
vt 0.687500 1.000000
vt 0.406250 1.000000
vt 0.406250 1.000000
vt 0.125000 1.000000
vt 0.125000 1.000000
vt 0.812500 1.000000
vt 0.531250 1.000000
vt 0.250000 1.000000
vt 0.937500 1.000000
vt 0.656250 1.000000
vt 0.375000 1.000000
vt 0.093750 1.000000
vt 0.937500 0.500000
vt 0.937500 0.500000
vt 0.906250 0.500000
vt 0.656250 0.500000
vt 0.656250 0.500000
vt 0.625000 0.500000
vt 0.375000 0.500000
vt 0.375000 0.500000
vt 0.343750 0.500000
vt 0.093750 0.500000
vt 0.093750 0.500000
vt 0.062500 0.500000
vt 0.781250 0.500000
vt 0.781250 0.500000
vt 0.750000 0.500000
vt 0.500000 0.500000
vt 0.500000 0.500000
vt 0.468750 0.500000
vt 0.218750 0.500000
vt 0.218750 0.500000
vt 0.187500 0.500000
vt 0.906250 0.500000
vt 0.875000 0.500000
vt 0.625000 0.500000
vt 0.593750 0.500000
vt 0.343750 0.500000
vt 0.312500 0.500000
vt 0.062500 0.500000
vt 0.031250 0.500000
vt 0.750000 0.500000
vt 0.718750 0.500000
vt 0.468750 0.500000
vt 0.437500 0.500000
vt 0.187500 0.500000
vt 0.156250 0.500000
vt 0.875000 0.500000
vt 0.843750 0.500000
vt 0.593750 0.500000
vt 0.562500 0.500000
vt 0.312500 0.500000
vt 0.281250 0.500000
vt 1.000000 0.500000
vt 1.000000 0.500000
vt 0.968750 0.500000
vt 0.031250 0.500000
vt 0.000000 0.500000
vt 0.718750 0.500000
vt 0.687500 0.500000
vt 0.437500 0.500000
vt 0.406250 0.500000
vt 0.156250 0.500000
vt 0.125000 0.500000
vt 0.843750 0.500000
vt 0.812500 0.500000
vt 0.562500 0.500000
vt 0.531250 0.500000
vt 0.281250 0.500000
vt 0.250000 0.500000
vt 0.968750 0.500000
vt 0.687500 0.500000
vt 0.406250 0.500000
vt 0.125000 0.500000
vt 0.812500 0.500000
vt 0.531250 0.500000
vt 0.250000 0.500000
vt 0.000000 1.000000
vn -0.1951 -0.9808 0.0000
vn -0.0000 -1.0000 0.0000
vn -0.3827 -0.9239 0.0000
vn -0.5556 -0.8315 0.0000
vn -0.7071 -0.7071 0.0000
vn -0.8315 -0.5556 0.0000
vn -0.9239 -0.3827 0.0000
vn -0.9808 -0.1951 0.0000
vn -1.0000 -0.0000 0.0000
vn -0.9808 0.1951 0.0000
vn -0.9239 0.3827 0.0000
vn -0.8315 0.5556 0.0000
vn -0.7071 0.7071 0.0000
vn -0.5556 0.8315 0.0000
vn -0.3827 0.9239 0.0000
vn -0.1951 0.9808 0.0000
vn 0.0000 1.0000 0.0000
vn 0.1951 0.9808 0.0000
vn 0.3827 0.9239 0.0000
vn 0.5556 0.8315 0.0000
vn 0.7071 0.7071 0.0000
vn 0.8315 0.5556 0.0000
vn 0.9239 0.3827 0.0000
vn 0.9808 0.1951 0.0000
vn 1.0000 0.0000 0.0000
vn 0.9808 -0.1951 0.0000
vn 0.9239 -0.3827 0.0000
vn 0.8315 -0.5556 0.0000
vn 0.7071 -0.7071 0.0000
vn 0.5556 -0.8315 0.0000
vn 0.3827 -0.9239 0.0000
vn 0.0000 0.0000 -1.0000
vn 0.1951 -0.9808 0.0000
vn -0.0000 -0.0000 1.0000
s 1
f 68/1/1 70/2/2 67/3/2
f 71/4/3 69/5/1 68/1/1
f 73/6/4 72/7/3 71/4/3
f 75/8/5 74/9/4 73/6/4
f 77/10/6 76/11/5 75/8/5
f 79/12/7 78/13/6 77/10/6
f 81/14/8 80/15/7 79/12/7
f 83/16/9 82/17/8 81/14/8
f 85/18/10 84/19/9 83/16/9
f 87/20/11 86/21/10 85/18/10
f 89/22/12 88/23/11 87/20/11
f 91/24/13 90/25/12 89/22/12
f 93/26/14 92/27/13 91/24/13
f 95/28/15 94/29/14 93/26/14
f 97/30/16 96/31/15 95/28/15
f 99/32/17 98/33/16 97/30/16
f 101/34/18 100/35/17 99/32/17
f 103/36/19 102/37/18 101/34/18
f 105/38/20 104/39/19 103/36/19
f 107/40/21 106/41/20 105/38/20
f 109/42/22 108/43/21 107/40/21
f 111/44/23 110/45/22 109/42/22
f 113/46/24 112/47/23 111/44/23
f 115/48/25 114/49/24 113/46/24
f 117/50/26 116/51/25 115/48/25
f 119/52/27 118/53/26 117/50/26
f 121/54/28 120/55/27 119/52/27
f 123/56/29 122/57/28 121/54/28
f 125/58/30 124/59/29 123/56/29
f 127/60/31 126/61/30 125/58/30
f 34/62/32 65/63/32 32/64/32
f 129/65/33 128/66/31 127/60/31
f 67/67/2 130/68/33 129/65/33
f 16/69/32 65/70/32 14/71/32
f 52/72/32 65/73/32 50/74/32
f 8/75/32 65/76/32 6/77/32
f 26/78/32 65/79/32 24/80/32
f 44/81/32 65/82/32 42/83/32
f 62/84/32 65/85/32 60/86/32
f 18/87/32 65/88/32 16/69/32
f 36/89/32 65/90/32 34/62/32
f 54/91/32 65/92/32 52/72/32
f 10/93/32 65/94/32 8/75/32
f 28/95/32 65/96/32 26/78/32
f 46/97/32 65/98/32 44/81/32
f 64/99/32 65/100/32 62/84/32
f 20/101/32 65/102/32 18/87/32
f 38/103/32 65/104/32 36/89/32
f 56/105/32 65/106/32 54/91/32
f 12/107/32 65/108/32 10/93/32
f 30/109/32 65/110/32 28/95/32
f 48/111/32 65/112/32 46/97/32
f 4/113/32 65/114/32 2/115/32
f 2/116/32 65/117/32 64/99/32
f 22/118/32 65/119/32 20/101/32
f 40/120/32 65/121/32 38/103/32
f 58/122/32 65/123/32 56/105/32
f 14/71/32 65/124/32 12/107/32
f 32/64/32 65/125/32 30/109/32
f 50/74/32 65/126/32 48/111/32
f 6/77/32 65/127/32 4/113/32
f 24/80/32 65/128/32 22/118/32
f 42/83/32 65/129/32 40/120/32
f 60/86/32 65/130/32 58/122/32
f 5/131/34 66/132/34 7/133/34
f 23/134/34 66/135/34 25/136/34
f 41/137/34 66/138/34 43/139/34
f 59/140/34 66/141/34 61/142/34
f 15/143/34 66/144/34 17/145/34
f 33/146/34 66/147/34 35/148/34
f 51/149/34 66/150/34 53/151/34
f 7/133/34 66/152/34 9/153/34
f 25/136/34 66/154/34 27/155/34
f 43/139/34 66/156/34 45/157/34
f 61/142/34 66/158/34 63/159/34
f 17/145/34 66/160/34 19/161/34
f 35/148/34 66/162/34 37/163/34
f 53/151/34 66/164/34 55/165/34
f 9/153/34 66/166/34 11/167/34
f 27/155/34 66/168/34 29/169/34
f 45/157/34 66/170/34 47/171/34
f 1/172/34 66/173/34 3/174/34
f 63/159/34 66/175/34 1/176/34
f 19/161/34 66/177/34 21/178/34
f 37/163/34 66/179/34 39/180/34
f 55/165/34 66/181/34 57/182/34
f 11/167/34 66/183/34 13/184/34
f 29/169/34 66/185/34 31/186/34
f 47/171/34 66/187/34 49/188/34
f 3/174/34 66/189/34 5/131/34
f 21/178/34 66/190/34 23/134/34
f 39/180/34 66/191/34 41/137/34
f 57/182/34 66/192/34 59/140/34
f 13/184/34 66/193/34 15/143/34
f 31/186/34 66/194/34 33/146/34
f 49/188/34 66/195/34 51/149/34
f 68/1/1 69/5/1 70/2/2
f 71/4/3 72/7/3 69/5/1
f 73/6/4 74/9/4 72/7/3
f 75/8/5 76/11/5 74/9/4
f 77/10/6 78/13/6 76/11/5
f 79/12/7 80/15/7 78/13/6
f 81/14/8 82/17/8 80/15/7
f 83/16/9 84/19/9 82/17/8
f 85/18/10 86/21/10 84/19/9
f 87/20/11 88/23/11 86/21/10
f 89/22/12 90/25/12 88/23/11
f 91/24/13 92/27/13 90/25/12
f 93/26/14 94/29/14 92/27/13
f 95/28/15 96/31/15 94/29/14
f 97/30/16 98/33/16 96/31/15
f 99/32/17 100/35/17 98/33/16
f 101/34/18 102/37/18 100/35/17
f 103/36/19 104/39/19 102/37/18
f 105/38/20 106/41/20 104/39/19
f 107/40/21 108/43/21 106/41/20
f 109/42/22 110/45/22 108/43/21
f 111/44/23 112/47/23 110/45/22
f 113/46/24 114/49/24 112/47/23
f 115/48/25 116/51/25 114/49/24
f 117/50/26 118/53/26 116/51/25
f 119/52/27 120/55/27 118/53/26
f 121/54/28 122/57/28 120/55/27
f 123/56/29 124/59/29 122/57/28
f 125/58/30 126/61/30 124/59/29
f 127/60/31 128/66/31 126/61/30
f 129/65/33 130/68/33 128/66/31
f 67/67/2 70/196/2 130/68/33
